<mxfile host="app.diagrams.net" modified="2021-04-20T01:07:09.167Z" agent="5.0 (Windows NT 10.0; Win64; x64) AppleWebKit/537.36 (KHTML, like Gecko) Chrome/87.0.4280.141 Safari/537.36 OPR/73.0.3856.421" etag="kNvomne1N2R0in6sMLJd" version="14.6.3" type="github">
  <diagram id="uMG9WtkTO5t-z0pVcJV5" name="Page-1">
    <mxGraphModel dx="1381" dy="764" grid="1" gridSize="10" guides="1" tooltips="1" connect="1" arrows="1" fold="1" page="1" pageScale="1" pageWidth="850" pageHeight="1100" math="0" shadow="0">
      <root>
        <mxCell id="0" />
        <mxCell id="1" parent="0" />
        <mxCell id="7cNR7ZOZLK2IUxIHDt90-1" value="" style="rounded=0;whiteSpace=wrap;html=1;" vertex="1" parent="1">
          <mxGeometry x="60" y="130" width="120" height="130" as="geometry" />
        </mxCell>
        <mxCell id="7cNR7ZOZLK2IUxIHDt90-2" value="&lt;font style=&quot;font-size: 17px&quot;&gt;Console&lt;/font&gt;" style="text;html=1;strokeColor=none;fillColor=none;align=center;verticalAlign=middle;whiteSpace=wrap;rounded=0;" vertex="1" parent="1">
          <mxGeometry x="100" y="130" width="40" height="20" as="geometry" />
        </mxCell>
        <mxCell id="7cNR7ZOZLK2IUxIHDt90-3" value="" style="endArrow=classic;html=1;exitX=1;exitY=0.5;exitDx=0;exitDy=0;entryX=0;entryY=0.5;entryDx=0;entryDy=0;" edge="1" parent="1" source="7cNR7ZOZLK2IUxIHDt90-1" target="7cNR7ZOZLK2IUxIHDt90-4">
          <mxGeometry width="50" height="50" relative="1" as="geometry">
            <mxPoint x="400" y="410" as="sourcePoint" />
            <mxPoint x="340" y="200" as="targetPoint" />
          </mxGeometry>
        </mxCell>
        <mxCell id="7cNR7ZOZLK2IUxIHDt90-4" value="" style="rounded=0;whiteSpace=wrap;html=1;" vertex="1" parent="1">
          <mxGeometry x="365" y="130" width="120" height="130" as="geometry" />
        </mxCell>
        <mxCell id="7cNR7ZOZLK2IUxIHDt90-5" value="Clean Interface" style="text;html=1;strokeColor=none;fillColor=none;align=center;verticalAlign=middle;whiteSpace=wrap;rounded=0;" vertex="1" parent="1">
          <mxGeometry x="70" y="160" width="100" height="20" as="geometry" />
        </mxCell>
        <mxCell id="7cNR7ZOZLK2IUxIHDt90-8" value="" style="line;strokeWidth=2;html=1;" vertex="1" parent="1">
          <mxGeometry x="60" y="150" width="120" height="10" as="geometry" />
        </mxCell>
        <mxCell id="7cNR7ZOZLK2IUxIHDt90-9" value="Logo" style="text;html=1;strokeColor=none;fillColor=none;align=center;verticalAlign=middle;whiteSpace=wrap;rounded=0;" vertex="1" parent="1">
          <mxGeometry x="70" y="180" width="100" height="20" as="geometry" />
        </mxCell>
        <mxCell id="7cNR7ZOZLK2IUxIHDt90-10" value="User info" style="text;html=1;strokeColor=none;fillColor=none;align=center;verticalAlign=middle;whiteSpace=wrap;rounded=0;" vertex="1" parent="1">
          <mxGeometry x="70" y="200" width="100" height="20" as="geometry" />
        </mxCell>
      </root>
    </mxGraphModel>
  </diagram>
</mxfile>
